<svg width="3840" height="2160" xmlns="http://www.w3.org/2000/svg"><defs><linearGradient id="a" gradientTransform="rotate(90)"><stop offset="5%" stop-color="#2e3338"/><stop offset="95%" stop-color="#626669"/></linearGradient><linearGradient id="b" gradientTransform="rotate(90)"><stop offset="5%" stop-color="#5c636a"/><stop offset="95%" stop-color="#848a8f"/></linearGradient><linearGradient id="c" gradientTransform="rotate(90)"><stop offset="5%" stop-color="#adb5bd"/><stop offset="95%" stop-color="#c1c7cd"/></linearGradient></defs><path fill="#212529" d="M0 0h3840v2160H0z"/><path d="M0 540c104.81-5.05 209.62-10.099 309 0s193.33 35.346 307 22c113.67-13.346 247.058-65.287 355-52 107.942 13.287 190.439 91.8 290 101 99.561 9.2 216.188-50.916 331-54 114.812-3.084 227.81 50.864 338 37 110.19-13.864 217.571-95.54 323-110 105.429-14.46 208.905 38.297 313 70 104.095 31.703 208.809 42.353 320 23s228.86-68.71 333-60c104.14 8.71 194.755 75.489 296 89 101.245 13.511 213.123-26.244 365-66l-40 1620H0Z" fill="url(#a)"/><path d="M0 1080c114.55-22.16 229.101-44.32 337-40s209.146 35.12 319 54c109.854 18.88 228.315 25.838 327 24 98.685-1.838 177.594-12.473 274-37s210.308-62.944 328-61c117.692 1.944 239.174 44.251 350 72 110.826 27.749 210.995 40.94 317 11 106.005-29.94 217.847-103.009 323-102 105.153 1.009 203.618 76.095 307 100s211.68-3.372 321-26 219.663-40.608 326-39c106.337 1.608 208.669 22.804 351 44l-40 1080H0Z" fill="url(#b)"/><path d="M0 1620c100.35 19.58 200.7 39.159 306 34 105.3-5.159 215.552-35.056 333-62 117.448-26.944 242.093-50.934 343-26 100.907 24.934 178.074 98.794 276 124 97.926 25.206 216.609 1.759 328-20 111.391-21.759 215.491-41.828 330-72 114.509-30.172 239.427-70.446 343-56 103.573 14.446 185.8 83.611 292 100 106.2 16.389 236.373-19.999 346-24 109.627-4.001 198.707 24.384 297 15s205.798-56.538 315-65c109.202-8.462 220.101 21.77 371 52l-40 540H0Z" fill="url(#c)"/></svg>